<mxfile host="app.diagrams.net" modified="2021-08-04T14:46:28.754Z" agent="5.0 (X11; Linux x86_64) AppleWebKit/537.36 (KHTML, like Gecko) Chrome/92.0.4515.107 Safari/537.36" etag="_0OWA96kTKxX7xUVJWyV" version="14.9.2" type="github">
  <diagram id="wDNHoOu6Jpko1F6MiR0f" name="Page-1">
    <mxGraphModel dx="1350" dy="737" grid="1" gridSize="10" guides="1" tooltips="1" connect="1" arrows="1" fold="1" page="1" pageScale="1" pageWidth="100827" pageHeight="10000" math="0" shadow="0">
      <root>
        <mxCell id="0" />
        <mxCell id="1" parent="0" />
        <mxCell id="MJIMx1O3fb0VPixdZPdm-53" value="" style="rounded=0;whiteSpace=wrap;html=1;fillColor=#fff2cc;strokeColor=#d6b656;" vertex="1" parent="1">
          <mxGeometry x="670" y="650" width="1680" height="720" as="geometry" />
        </mxCell>
        <mxCell id="MJIMx1O3fb0VPixdZPdm-6" value="&lt;font style=&quot;font-size: 22px&quot;&gt;1&lt;/font&gt;" style="rounded=0;whiteSpace=wrap;html=1;fillColor=#eeeeee;strokeColor=#36393d;" vertex="1" parent="1">
          <mxGeometry x="730" y="810" width="70" height="60" as="geometry" />
        </mxCell>
        <mxCell id="MJIMx1O3fb0VPixdZPdm-7" value="&lt;b&gt;&lt;font style=&quot;font-size: 25px&quot;&gt;name&lt;/font&gt;&lt;/b&gt;" style="rounded=0;whiteSpace=wrap;html=1;fillColor=#e1d5e7;strokeColor=#9673a6;" vertex="1" parent="1">
          <mxGeometry x="800" y="750" width="180" height="60" as="geometry" />
        </mxCell>
        <mxCell id="MJIMx1O3fb0VPixdZPdm-8" value="&lt;b&gt;&lt;font style=&quot;font-size: 25px&quot;&gt;position&lt;/font&gt;&lt;/b&gt;" style="rounded=0;whiteSpace=wrap;html=1;fillColor=#e1d5e7;strokeColor=#9673a6;" vertex="1" parent="1">
          <mxGeometry x="980" y="750" width="180" height="60" as="geometry" />
        </mxCell>
        <mxCell id="MJIMx1O3fb0VPixdZPdm-9" value="&lt;b&gt;&lt;font style=&quot;font-size: 25px&quot;&gt;department&lt;/font&gt;&lt;/b&gt;" style="rounded=0;whiteSpace=wrap;html=1;fillColor=#e1d5e7;strokeColor=#9673a6;" vertex="1" parent="1">
          <mxGeometry x="1160" y="750" width="180" height="60" as="geometry" />
        </mxCell>
        <mxCell id="MJIMx1O3fb0VPixdZPdm-10" value="&lt;b&gt;&lt;font style=&quot;font-size: 25px&quot;&gt;salary&lt;/font&gt;&lt;/b&gt;" style="rounded=0;whiteSpace=wrap;html=1;fillColor=#e1d5e7;strokeColor=#9673a6;" vertex="1" parent="1">
          <mxGeometry x="1340" y="750" width="180" height="60" as="geometry" />
        </mxCell>
        <mxCell id="MJIMx1O3fb0VPixdZPdm-11" value="&lt;b&gt;&lt;font style=&quot;font-size: 25px&quot;&gt;id&lt;/font&gt;&lt;/b&gt;" style="rounded=0;whiteSpace=wrap;html=1;fillColor=#e1d5e7;strokeColor=#9673a6;" vertex="1" parent="1">
          <mxGeometry x="730" y="750" width="70" height="60" as="geometry" />
        </mxCell>
        <mxCell id="MJIMx1O3fb0VPixdZPdm-12" value="&lt;font style=&quot;font-size: 22px&quot;&gt;2&lt;/font&gt;" style="rounded=0;whiteSpace=wrap;html=1;fillColor=#eeeeee;strokeColor=#36393d;" vertex="1" parent="1">
          <mxGeometry x="730" y="870" width="70" height="60" as="geometry" />
        </mxCell>
        <mxCell id="MJIMx1O3fb0VPixdZPdm-13" value="&lt;font style=&quot;font-size: 22px&quot;&gt;3&lt;/font&gt;" style="rounded=0;whiteSpace=wrap;html=1;fillColor=#eeeeee;strokeColor=#36393d;" vertex="1" parent="1">
          <mxGeometry x="730" y="930" width="70" height="60" as="geometry" />
        </mxCell>
        <mxCell id="MJIMx1O3fb0VPixdZPdm-14" value="&lt;font style=&quot;font-size: 22px&quot;&gt;4&lt;/font&gt;" style="rounded=0;whiteSpace=wrap;html=1;fillColor=#eeeeee;strokeColor=#36393d;" vertex="1" parent="1">
          <mxGeometry x="730" y="990" width="70" height="60" as="geometry" />
        </mxCell>
        <mxCell id="MJIMx1O3fb0VPixdZPdm-15" value="&lt;font style=&quot;font-size: 22px&quot;&gt;5&lt;/font&gt;" style="rounded=0;whiteSpace=wrap;html=1;fillColor=#eeeeee;strokeColor=#36393d;" vertex="1" parent="1">
          <mxGeometry x="730" y="1050" width="70" height="60" as="geometry" />
        </mxCell>
        <mxCell id="MJIMx1O3fb0VPixdZPdm-16" value="&lt;font style=&quot;font-size: 22px&quot;&gt;6&lt;/font&gt;" style="rounded=0;whiteSpace=wrap;html=1;fillColor=#eeeeee;strokeColor=#36393d;" vertex="1" parent="1">
          <mxGeometry x="730" y="1110" width="70" height="60" as="geometry" />
        </mxCell>
        <mxCell id="MJIMx1O3fb0VPixdZPdm-17" value="&lt;font style=&quot;font-size: 22px&quot;&gt;7&lt;/font&gt;" style="rounded=0;whiteSpace=wrap;html=1;fillColor=#eeeeee;strokeColor=#36393d;" vertex="1" parent="1">
          <mxGeometry x="730" y="1170" width="70" height="60" as="geometry" />
        </mxCell>
        <mxCell id="MJIMx1O3fb0VPixdZPdm-18" value="&lt;font style=&quot;font-size: 22px&quot;&gt;8&lt;/font&gt;" style="rounded=0;whiteSpace=wrap;html=1;fillColor=#eeeeee;strokeColor=#36393d;" vertex="1" parent="1">
          <mxGeometry x="730" y="1230" width="70" height="60" as="geometry" />
        </mxCell>
        <mxCell id="MJIMx1O3fb0VPixdZPdm-19" value="&lt;span style=&quot;font-family: &amp;#34;droid sans mono&amp;#34; , monospace , monospace , &amp;#34;droid sans fallback&amp;#34; ; font-size: 16px ; background-color: rgb(252 , 253 , 255)&quot;&gt;Maggan Ericsson&lt;/span&gt;" style="rounded=0;whiteSpace=wrap;html=1;" vertex="1" parent="1">
          <mxGeometry x="800" y="810" width="180" height="60" as="geometry" />
        </mxCell>
        <mxCell id="MJIMx1O3fb0VPixdZPdm-20" value="&lt;span style=&quot;font-family: &amp;#34;droid sans mono&amp;#34; , monospace , monospace , &amp;#34;droid sans fallback&amp;#34; ; font-size: 16px ; background-color: rgb(252 , 253 , 255)&quot;&gt;Magnus Jorgenstein&lt;/span&gt;" style="rounded=0;whiteSpace=wrap;html=1;" vertex="1" parent="1">
          <mxGeometry x="800" y="870" width="180" height="60" as="geometry" />
        </mxCell>
        <mxCell id="MJIMx1O3fb0VPixdZPdm-21" value="&lt;font face=&quot;droid sans mono, monospace, monospace, droid sans fallback&quot;&gt;&lt;span style=&quot;font-size: 16px ; background-color: rgb(252 , 253 , 255)&quot;&gt;Virginia Johnson&lt;/span&gt;&lt;/font&gt;" style="rounded=0;whiteSpace=wrap;html=1;" vertex="1" parent="1">
          <mxGeometry x="800" y="1050" width="180" height="60" as="geometry" />
        </mxCell>
        <mxCell id="MJIMx1O3fb0VPixdZPdm-22" value="&lt;font face=&quot;droid sans mono, monospace, monospace, droid sans fallback&quot;&gt;&lt;span style=&quot;font-size: 16px ; background-color: rgb(252 , 253 , 255)&quot;&gt;Tom Sith&lt;/span&gt;&lt;/font&gt;" style="rounded=0;whiteSpace=wrap;html=1;" vertex="1" parent="1">
          <mxGeometry x="800" y="1110" width="180" height="60" as="geometry" />
        </mxCell>
        <mxCell id="MJIMx1O3fb0VPixdZPdm-23" value="&lt;span style=&quot;font-family: &amp;#34;droid sans mono&amp;#34; , monospace , monospace , &amp;#34;droid sans fallback&amp;#34; ; font-size: 16px ; background-color: rgb(252 , 253 , 255)&quot;&gt;Gregory Johnson&lt;/span&gt;" style="rounded=0;whiteSpace=wrap;html=1;" vertex="1" parent="1">
          <mxGeometry x="800" y="1170" width="180" height="60" as="geometry" />
        </mxCell>
        <mxCell id="MJIMx1O3fb0VPixdZPdm-24" value="&lt;span style=&quot;font-family: &amp;#34;droid sans mono&amp;#34; , monospace , monospace , &amp;#34;droid sans fallback&amp;#34; ; font-size: 16px ; background-color: rgb(252 , 253 , 255)&quot;&gt;Victoria Correra&lt;/span&gt;" style="rounded=0;whiteSpace=wrap;html=1;" vertex="1" parent="1">
          <mxGeometry x="800" y="1230" width="180" height="60" as="geometry" />
        </mxCell>
        <mxCell id="MJIMx1O3fb0VPixdZPdm-25" value="&lt;span style=&quot;font-family: &amp;#34;droid sans mono&amp;#34; , monospace , monospace , &amp;#34;droid sans fallback&amp;#34; ; font-size: 16px ; background-color: rgb(252 , 253 , 255)&quot;&gt;Katarina Ingersson&lt;/span&gt;" style="rounded=0;whiteSpace=wrap;html=1;" vertex="1" parent="1">
          <mxGeometry x="800" y="930" width="180" height="60" as="geometry" />
        </mxCell>
        <mxCell id="MJIMx1O3fb0VPixdZPdm-26" value="&lt;span style=&quot;font-family: &amp;#34;droid sans mono&amp;#34; , monospace , monospace , &amp;#34;droid sans fallback&amp;#34; ; font-size: 16px ; background-color: rgb(252 , 253 , 255)&quot;&gt;John Fergusson&lt;/span&gt;" style="rounded=0;whiteSpace=wrap;html=1;" vertex="1" parent="1">
          <mxGeometry x="800" y="990" width="180" height="60" as="geometry" />
        </mxCell>
        <mxCell id="MJIMx1O3fb0VPixdZPdm-27" value="&lt;span style=&quot;font-family: &amp;#34;droid sans mono&amp;#34; , monospace , monospace , &amp;#34;droid sans fallback&amp;#34; ; font-size: 16px ; background-color: rgb(252 , 253 , 255)&quot;&gt;Accounting&lt;/span&gt;" style="rounded=0;whiteSpace=wrap;html=1;" vertex="1" parent="1">
          <mxGeometry x="1160" y="810" width="180" height="60" as="geometry" />
        </mxCell>
        <mxCell id="MJIMx1O3fb0VPixdZPdm-28" value="&lt;span style=&quot;font-family: &amp;#34;droid sans mono&amp;#34; , monospace , monospace , &amp;#34;droid sans fallback&amp;#34; ; font-size: 16px&quot;&gt;Accountant&lt;/span&gt;" style="rounded=0;whiteSpace=wrap;html=1;" vertex="1" parent="1">
          <mxGeometry x="980" y="870" width="180" height="60" as="geometry" />
        </mxCell>
        <mxCell id="MJIMx1O3fb0VPixdZPdm-29" value="&lt;span style=&quot;font-family: &amp;#34;droid sans mono&amp;#34; , monospace , monospace , &amp;#34;droid sans fallback&amp;#34; ; font-size: 16px ; background-color: rgb(252 , 253 , 255)&quot;&gt;Sales-assistant&lt;/span&gt;" style="rounded=0;whiteSpace=wrap;html=1;" vertex="1" parent="1">
          <mxGeometry x="980" y="1050" width="180" height="60" as="geometry" />
        </mxCell>
        <mxCell id="MJIMx1O3fb0VPixdZPdm-30" value="&lt;span style=&quot;font-family: &amp;#34;droid sans mono&amp;#34; , monospace , monospace , &amp;#34;droid sans fallback&amp;#34; ; font-size: 16px ; background-color: rgb(252 , 253 , 255)&quot;&gt;Sales Manager&lt;/span&gt;" style="rounded=0;whiteSpace=wrap;html=1;" vertex="1" parent="1">
          <mxGeometry x="980" y="1110" width="180" height="60" as="geometry" />
        </mxCell>
        <mxCell id="MJIMx1O3fb0VPixdZPdm-31" value="&lt;span style=&quot;font-family: &amp;#34;droid sans mono&amp;#34; , monospace , monospace , &amp;#34;droid sans fallback&amp;#34; ; font-size: 16px ; background-color: rgb(252 , 253 , 255)&quot;&gt;Salesperson&lt;/span&gt;" style="rounded=0;whiteSpace=wrap;html=1;" vertex="1" parent="1">
          <mxGeometry x="980" y="1170" width="180" height="60" as="geometry" />
        </mxCell>
        <mxCell id="MJIMx1O3fb0VPixdZPdm-32" value="&lt;span style=&quot;font-family: &amp;#34;droid sans mono&amp;#34; , monospace , monospace , &amp;#34;droid sans fallback&amp;#34; ; font-size: 16px ; background-color: rgb(252 , 253 , 255)&quot;&gt;Salesperson&lt;/span&gt;" style="rounded=0;whiteSpace=wrap;html=1;" vertex="1" parent="1">
          <mxGeometry x="980" y="1230" width="180" height="60" as="geometry" />
        </mxCell>
        <mxCell id="MJIMx1O3fb0VPixdZPdm-33" value="&lt;span style=&quot;font-family: &amp;#34;droid sans mono&amp;#34; , monospace , monospace , &amp;#34;droid sans fallback&amp;#34; ; font-size: 16px ; background-color: rgb(252 , 253 , 255)&quot;&gt;Deputy Director&lt;/span&gt;" style="rounded=0;whiteSpace=wrap;html=1;" vertex="1" parent="1">
          <mxGeometry x="980" y="930" width="180" height="60" as="geometry" />
        </mxCell>
        <mxCell id="MJIMx1O3fb0VPixdZPdm-34" value="&lt;span style=&quot;font-family: &amp;#34;droid sans mono&amp;#34; , monospace , monospace , &amp;#34;droid sans fallback&amp;#34; ; font-size: 16px ; background-color: rgb(252 , 253 , 255)&quot;&gt;CEO&lt;/span&gt;" style="rounded=0;whiteSpace=wrap;html=1;" vertex="1" parent="1">
          <mxGeometry x="980" y="990" width="180" height="60" as="geometry" />
        </mxCell>
        <mxCell id="MJIMx1O3fb0VPixdZPdm-35" value="&lt;font face=&quot;droid sans mono, monospace, monospace, droid sans fallback&quot;&gt;&lt;span style=&quot;font-size: 16px&quot;&gt;Accountant&lt;/span&gt;&lt;/font&gt;" style="rounded=0;whiteSpace=wrap;html=1;" vertex="1" parent="1">
          <mxGeometry x="980" y="810" width="180" height="60" as="geometry" />
        </mxCell>
        <mxCell id="MJIMx1O3fb0VPixdZPdm-36" value="&lt;span style=&quot;font-family: &amp;#34;droid sans mono&amp;#34; , monospace , monospace , &amp;#34;droid sans fallback&amp;#34; ; font-size: 16px ; background-color: rgb(252 , 253 , 255)&quot;&gt;70.000&lt;/span&gt;" style="rounded=0;whiteSpace=wrap;html=1;" vertex="1" parent="1">
          <mxGeometry x="1340" y="810" width="180" height="60" as="geometry" />
        </mxCell>
        <mxCell id="MJIMx1O3fb0VPixdZPdm-37" value="&lt;span style=&quot;font-family: &amp;#34;droid sans mono&amp;#34; , monospace , monospace , &amp;#34;droid sans fallback&amp;#34; ; font-size: 16px ; background-color: rgb(252 , 253 , 255)&quot;&gt;Accounting&lt;/span&gt;" style="rounded=0;whiteSpace=wrap;html=1;" vertex="1" parent="1">
          <mxGeometry x="1160" y="870" width="180" height="60" as="geometry" />
        </mxCell>
        <mxCell id="MJIMx1O3fb0VPixdZPdm-38" value="&lt;span style=&quot;font-family: &amp;#34;droid sans mono&amp;#34; , monospace , monospace , &amp;#34;droid sans fallback&amp;#34; ; font-size: 16px ; background-color: rgb(252 , 253 , 255)&quot;&gt;Sales&lt;/span&gt;" style="rounded=0;whiteSpace=wrap;html=1;" vertex="1" parent="1">
          <mxGeometry x="1160" y="1170" width="180" height="60" as="geometry" />
        </mxCell>
        <mxCell id="MJIMx1O3fb0VPixdZPdm-39" value="&lt;span style=&quot;font-family: &amp;#34;droid sans mono&amp;#34; , monospace , monospace , &amp;#34;droid sans fallback&amp;#34; ; font-size: 16px ; background-color: rgb(252 , 253 , 255)&quot;&gt;Sales&lt;/span&gt;" style="rounded=0;whiteSpace=wrap;html=1;" vertex="1" parent="1">
          <mxGeometry x="1160" y="1230" width="180" height="60" as="geometry" />
        </mxCell>
        <mxCell id="MJIMx1O3fb0VPixdZPdm-40" value="&lt;span style=&quot;font-family: &amp;#34;droid sans mono&amp;#34; , monospace , monospace , &amp;#34;droid sans fallback&amp;#34; ; font-size: 16px ; background-color: rgb(252 , 253 , 255)&quot;&gt;Sales&lt;/span&gt;" style="rounded=0;whiteSpace=wrap;html=1;" vertex="1" parent="1">
          <mxGeometry x="1160" y="1050" width="180" height="60" as="geometry" />
        </mxCell>
        <mxCell id="MJIMx1O3fb0VPixdZPdm-41" value="&lt;span style=&quot;font-family: &amp;#34;droid sans mono&amp;#34; , monospace , monospace , &amp;#34;droid sans fallback&amp;#34; ; font-size: 16px ; background-color: rgb(252 , 253 , 255)&quot;&gt;Sales&lt;/span&gt;" style="rounded=0;whiteSpace=wrap;html=1;" vertex="1" parent="1">
          <mxGeometry x="1160" y="1110" width="180" height="60" as="geometry" />
        </mxCell>
        <mxCell id="MJIMx1O3fb0VPixdZPdm-42" value="&lt;span style=&quot;font-family: &amp;#34;droid sans mono&amp;#34; , monospace , monospace , &amp;#34;droid sans fallback&amp;#34; ; font-size: 16px ; background-color: rgb(252 , 253 , 255)&quot;&gt;Management&lt;/span&gt;" style="rounded=0;whiteSpace=wrap;html=1;" vertex="1" parent="1">
          <mxGeometry x="1160" y="930" width="180" height="60" as="geometry" />
        </mxCell>
        <mxCell id="MJIMx1O3fb0VPixdZPdm-43" value="&lt;span style=&quot;font-family: &amp;#34;droid sans mono&amp;#34; , monospace , monospace , &amp;#34;droid sans fallback&amp;#34; ; font-size: 16px ; background-color: rgb(252 , 253 , 255)&quot;&gt;Management&lt;/span&gt;" style="rounded=0;whiteSpace=wrap;html=1;" vertex="1" parent="1">
          <mxGeometry x="1160" y="990" width="180" height="60" as="geometry" />
        </mxCell>
        <mxCell id="MJIMx1O3fb0VPixdZPdm-44" value="&lt;span style=&quot;font-family: &amp;#34;droid sans mono&amp;#34; , monospace , monospace , &amp;#34;droid sans fallback&amp;#34; ; font-size: 16px ; background-color: rgb(252 , 253 , 255)&quot;&gt;70.000&lt;/span&gt;" style="rounded=0;whiteSpace=wrap;html=1;" vertex="1" parent="1">
          <mxGeometry x="1340" y="870" width="180" height="60" as="geometry" />
        </mxCell>
        <mxCell id="MJIMx1O3fb0VPixdZPdm-45" value="&lt;span style=&quot;font-family: &amp;#34;droid sans mono&amp;#34; , monospace , monospace , &amp;#34;droid sans fallback&amp;#34; ; font-size: 16px ; background-color: rgb(252 , 253 , 255)&quot;&gt;60.000&lt;/span&gt;" style="rounded=0;whiteSpace=wrap;html=1;" vertex="1" parent="1">
          <mxGeometry x="1340" y="1050" width="180" height="60" as="geometry" />
        </mxCell>
        <mxCell id="MJIMx1O3fb0VPixdZPdm-46" value="&lt;span style=&quot;font-family: &amp;#34;droid sans mono&amp;#34; , monospace , monospace , &amp;#34;droid sans fallback&amp;#34; ; font-size: 16px ; background-color: rgb(252 , 253 , 255)&quot;&gt;100.00&lt;/span&gt;" style="rounded=0;whiteSpace=wrap;html=1;" vertex="1" parent="1">
          <mxGeometry x="1340" y="1110" width="180" height="60" as="geometry" />
        </mxCell>
        <mxCell id="MJIMx1O3fb0VPixdZPdm-47" value="&lt;span style=&quot;font-family: &amp;#34;droid sans mono&amp;#34; , monospace , monospace , &amp;#34;droid sans fallback&amp;#34; ; font-size: 16px ; background-color: rgb(252 , 253 , 255)&quot;&gt;70.000&lt;/span&gt;" style="rounded=0;whiteSpace=wrap;html=1;" vertex="1" parent="1">
          <mxGeometry x="1340" y="1170" width="180" height="60" as="geometry" />
        </mxCell>
        <mxCell id="MJIMx1O3fb0VPixdZPdm-48" value="&lt;span style=&quot;font-family: &amp;#34;droid sans mono&amp;#34; , monospace , monospace , &amp;#34;droid sans fallback&amp;#34; ; font-size: 16px ; background-color: rgb(252 , 253 , 255)&quot;&gt;70.000&lt;/span&gt;" style="rounded=0;whiteSpace=wrap;html=1;" vertex="1" parent="1">
          <mxGeometry x="1340" y="1230" width="180" height="60" as="geometry" />
        </mxCell>
        <mxCell id="MJIMx1O3fb0VPixdZPdm-49" value="&lt;span style=&quot;font-family: &amp;#34;droid sans mono&amp;#34; , monospace , monospace , &amp;#34;droid sans fallback&amp;#34; ; font-size: 16px ; background-color: rgb(252 , 253 , 255)&quot;&gt;120.000&lt;/span&gt;" style="rounded=0;whiteSpace=wrap;html=1;" vertex="1" parent="1">
          <mxGeometry x="1340" y="930" width="180" height="60" as="geometry" />
        </mxCell>
        <mxCell id="MJIMx1O3fb0VPixdZPdm-50" value="&lt;span style=&quot;font-family: &amp;#34;droid sans mono&amp;#34; , monospace , monospace , &amp;#34;droid sans fallback&amp;#34; ; font-size: 16px ; background-color: rgb(252 , 253 , 255)&quot;&gt;150.000&lt;/span&gt;" style="rounded=0;whiteSpace=wrap;html=1;" vertex="1" parent="1">
          <mxGeometry x="1340" y="990" width="180" height="60" as="geometry" />
        </mxCell>
        <mxCell id="MJIMx1O3fb0VPixdZPdm-54" value="&lt;b&gt;&lt;font style=&quot;font-size: 25px&quot;&gt;department&lt;/font&gt;&lt;/b&gt;" style="rounded=0;whiteSpace=wrap;html=1;fillColor=#e1d5e7;strokeColor=#9673a6;" vertex="1" parent="1">
          <mxGeometry x="1940" y="899.99" width="180" height="60" as="geometry" />
        </mxCell>
        <mxCell id="MJIMx1O3fb0VPixdZPdm-55" value="&lt;span style=&quot;font-family: &amp;#34;droid sans mono&amp;#34; , monospace , monospace , &amp;#34;droid sans fallback&amp;#34; ; font-size: 16px ; background-color: rgb(252 , 253 , 255)&quot;&gt;Accounting&lt;/span&gt;" style="rounded=0;whiteSpace=wrap;html=1;" vertex="1" parent="1">
          <mxGeometry x="1700" y="840" width="180" height="60" as="geometry" />
        </mxCell>
        <mxCell id="MJIMx1O3fb0VPixdZPdm-56" value="&lt;span style=&quot;font-family: &amp;#34;droid sans mono&amp;#34; , monospace , monospace , &amp;#34;droid sans fallback&amp;#34; ; font-size: 16px ; background-color: rgb(252 , 253 , 255)&quot;&gt;Sales&lt;/span&gt;" style="rounded=0;whiteSpace=wrap;html=1;" vertex="1" parent="1">
          <mxGeometry x="1700" y="1200" width="180" height="60" as="geometry" />
        </mxCell>
        <mxCell id="MJIMx1O3fb0VPixdZPdm-57" value="&lt;span style=&quot;font-family: &amp;#34;droid sans mono&amp;#34; , monospace , monospace , &amp;#34;droid sans fallback&amp;#34; ; font-size: 16px ; background-color: rgb(252 , 253 , 255)&quot;&gt;Management&lt;/span&gt;" style="rounded=0;whiteSpace=wrap;html=1;" vertex="1" parent="1">
          <mxGeometry x="1700" y="1019.99" width="180" height="60" as="geometry" />
        </mxCell>
        <mxCell id="MJIMx1O3fb0VPixdZPdm-58" value="" style="strokeWidth=2;html=1;shape=mxgraph.flowchart.annotation_2;align=left;labelPosition=right;pointerEvents=1;rotation=-181;" vertex="1" parent="1">
          <mxGeometry x="1530" y="820" width="50" height="100" as="geometry" />
        </mxCell>
        <mxCell id="MJIMx1O3fb0VPixdZPdm-59" value="" style="strokeWidth=2;html=1;shape=mxgraph.flowchart.annotation_2;align=left;labelPosition=right;pointerEvents=1;rotation=-181;" vertex="1" parent="1">
          <mxGeometry x="1531.05" y="939.99" width="50" height="220" as="geometry" />
        </mxCell>
        <mxCell id="MJIMx1O3fb0VPixdZPdm-60" value="" style="strokeWidth=2;html=1;shape=mxgraph.flowchart.annotation_2;align=left;labelPosition=right;pointerEvents=1;rotation=-181;" vertex="1" parent="1">
          <mxGeometry x="1531.05" y="1180" width="50" height="110" as="geometry" />
        </mxCell>
        <mxCell id="MJIMx1O3fb0VPixdZPdm-66" value="&lt;span style=&quot;font-family: &amp;#34;droid sans mono&amp;#34; , monospace , monospace , &amp;#34;droid sans fallback&amp;#34; ; font-size: 16px ; background-color: rgb(252 , 253 , 255)&quot;&gt;Accounting&lt;/span&gt;" style="rounded=0;whiteSpace=wrap;html=1;" vertex="1" parent="1">
          <mxGeometry x="1940" y="959.99" width="180" height="60" as="geometry" />
        </mxCell>
        <mxCell id="MJIMx1O3fb0VPixdZPdm-67" value="&lt;span style=&quot;font-family: &amp;#34;droid sans mono&amp;#34; , monospace , monospace , &amp;#34;droid sans fallback&amp;#34; ; font-size: 16px ; background-color: rgb(252 , 253 , 255)&quot;&gt;Sales&lt;/span&gt;" style="rounded=0;whiteSpace=wrap;html=1;" vertex="1" parent="1">
          <mxGeometry x="1940" y="1079.99" width="180" height="60" as="geometry" />
        </mxCell>
        <mxCell id="MJIMx1O3fb0VPixdZPdm-68" value="&lt;span style=&quot;font-family: &amp;#34;droid sans mono&amp;#34; , monospace , monospace , &amp;#34;droid sans fallback&amp;#34; ; font-size: 16px ; background-color: rgb(252 , 253 , 255)&quot;&gt;Management&lt;/span&gt;" style="rounded=0;whiteSpace=wrap;html=1;" vertex="1" parent="1">
          <mxGeometry x="1940" y="1019.99" width="180" height="60" as="geometry" />
        </mxCell>
        <mxCell id="MJIMx1O3fb0VPixdZPdm-70" value="" style="endArrow=none;html=1;strokeWidth=2;entryX=0;entryY=0.5;entryDx=0;entryDy=0;exitX=1;exitY=0.5;exitDx=0;exitDy=0;" edge="1" parent="1" source="MJIMx1O3fb0VPixdZPdm-55" target="MJIMx1O3fb0VPixdZPdm-66">
          <mxGeometry width="50" height="50" relative="1" as="geometry">
            <mxPoint x="1761.05" y="880" as="sourcePoint" />
            <mxPoint x="1811.05" y="830" as="targetPoint" />
          </mxGeometry>
        </mxCell>
        <mxCell id="MJIMx1O3fb0VPixdZPdm-71" value="" style="endArrow=none;html=1;strokeWidth=2;exitX=1;exitY=0.5;exitDx=0;exitDy=0;entryX=0;entryY=0.5;entryDx=0;entryDy=0;" edge="1" parent="1" source="MJIMx1O3fb0VPixdZPdm-56" target="MJIMx1O3fb0VPixdZPdm-67">
          <mxGeometry width="50" height="50" relative="1" as="geometry">
            <mxPoint x="1780" y="1110" as="sourcePoint" />
            <mxPoint x="1830" y="1060" as="targetPoint" />
          </mxGeometry>
        </mxCell>
        <mxCell id="MJIMx1O3fb0VPixdZPdm-72" value="" style="endArrow=none;html=1;strokeWidth=2;entryX=0;entryY=0.5;entryDx=0;entryDy=0;exitX=1;exitY=0.5;exitDx=0;exitDy=0;" edge="1" parent="1" source="MJIMx1O3fb0VPixdZPdm-57" target="MJIMx1O3fb0VPixdZPdm-68">
          <mxGeometry width="50" height="50" relative="1" as="geometry">
            <mxPoint x="1761.05" y="1240" as="sourcePoint" />
            <mxPoint x="1811.05" y="1190" as="targetPoint" />
          </mxGeometry>
        </mxCell>
        <mxCell id="MJIMx1O3fb0VPixdZPdm-73" value="&lt;b&gt;&lt;font style=&quot;font-size: 22px&quot;&gt;GROUP BY department&lt;/font&gt;&lt;/b&gt;" style="text;html=1;strokeColor=none;fillColor=none;align=center;verticalAlign=middle;whiteSpace=wrap;rounded=0;" vertex="1" parent="1">
          <mxGeometry x="1700" y="730" width="180" height="70" as="geometry" />
        </mxCell>
        <mxCell id="MJIMx1O3fb0VPixdZPdm-74" value="&lt;b&gt;&lt;font style=&quot;font-size: 25px&quot;&gt;sum&lt;/font&gt;&lt;/b&gt;" style="rounded=0;whiteSpace=wrap;html=1;fillColor=#e1d5e7;strokeColor=#9673a6;" vertex="1" parent="1">
          <mxGeometry x="2120" y="900" width="180" height="60" as="geometry" />
        </mxCell>
        <mxCell id="MJIMx1O3fb0VPixdZPdm-75" value="&lt;span style=&quot;font-family: &amp;#34;droid sans mono&amp;#34; , monospace , monospace , &amp;#34;droid sans fallback&amp;#34; ; font-size: 16px ; background-color: rgb(252 , 253 , 255)&quot;&gt;140.00&lt;/span&gt;" style="rounded=0;whiteSpace=wrap;html=1;" vertex="1" parent="1">
          <mxGeometry x="2120" y="960" width="180" height="60" as="geometry" />
        </mxCell>
        <mxCell id="MJIMx1O3fb0VPixdZPdm-76" value="&lt;span style=&quot;font-family: &amp;#34;droid sans mono&amp;#34; , monospace , monospace , &amp;#34;droid sans fallback&amp;#34; ; font-size: 16px ; background-color: rgb(252 , 253 , 255)&quot;&gt;270.00&lt;/span&gt;" style="rounded=0;whiteSpace=wrap;html=1;" vertex="1" parent="1">
          <mxGeometry x="2120" y="1080" width="180" height="60" as="geometry" />
        </mxCell>
        <mxCell id="MJIMx1O3fb0VPixdZPdm-77" value="&lt;span style=&quot;font-family: &amp;#34;droid sans mono&amp;#34; , monospace , monospace , &amp;#34;droid sans fallback&amp;#34; ; font-size: 16px ; background-color: rgb(252 , 253 , 255)&quot;&gt;300.00&lt;/span&gt;" style="rounded=0;whiteSpace=wrap;html=1;" vertex="1" parent="1">
          <mxGeometry x="2120" y="1020" width="180" height="60" as="geometry" />
        </mxCell>
        <mxCell id="MJIMx1O3fb0VPixdZPdm-78" value="&lt;span style=&quot;font-family: &amp;#34;droid sans mono&amp;#34; , monospace , monospace , &amp;#34;droid sans fallback&amp;#34; ; font-size: 16px ; background-color: rgb(252 , 253 , 255)&quot;&gt;140.00&lt;/span&gt;" style="rounded=0;whiteSpace=wrap;html=1;" vertex="1" parent="1">
          <mxGeometry x="1580" y="839.99" width="110" height="60" as="geometry" />
        </mxCell>
        <mxCell id="MJIMx1O3fb0VPixdZPdm-79" value="&lt;span style=&quot;font-family: &amp;#34;droid sans mono&amp;#34; , monospace , monospace , &amp;#34;droid sans fallback&amp;#34; ; font-size: 16px ; background-color: rgb(252 , 253 , 255)&quot;&gt;270.00&lt;/span&gt;" style="rounded=0;whiteSpace=wrap;html=1;" vertex="1" parent="1">
          <mxGeometry x="1581.05" y="1200" width="110" height="60" as="geometry" />
        </mxCell>
        <mxCell id="MJIMx1O3fb0VPixdZPdm-80" value="&lt;span style=&quot;font-family: &amp;#34;droid sans mono&amp;#34; , monospace , monospace , &amp;#34;droid sans fallback&amp;#34; ; font-size: 16px ; background-color: rgb(252 , 253 , 255)&quot;&gt;300.00&lt;/span&gt;" style="rounded=0;whiteSpace=wrap;html=1;" vertex="1" parent="1">
          <mxGeometry x="1581.58" y="1019.99" width="108.95" height="60" as="geometry" />
        </mxCell>
        <mxCell id="MJIMx1O3fb0VPixdZPdm-84" value="&lt;b&gt;&lt;font style=&quot;font-size: 22px&quot;&gt;SUM(salary)&lt;/font&gt;&lt;/b&gt;" style="text;html=1;strokeColor=none;fillColor=none;align=center;verticalAlign=middle;whiteSpace=wrap;rounded=0;" vertex="1" parent="1">
          <mxGeometry x="1546.05" y="730" width="180" height="70" as="geometry" />
        </mxCell>
      </root>
    </mxGraphModel>
  </diagram>
</mxfile>
